<svg width="428" height="572" viewBox="0 0 428 572" fill="none" xmlns="http://www.w3.org/2000/svg">
<g filter="url(#filter0_d)">
<path d="M370 51.5H333L228 292.5L244 328.5L370 51.5Z" fill="#7FD3F5" stroke="#7FD3F5"/>
<path d="M181 388.5L5 1H392.5L386 17H35.5L204.5 388.5H181Z" fill="#7FD3F5" stroke="#7FD3F5"/>
<path d="M211.5 405L204.5 389H217L244 328L246.5 333.5L386.5 16.5H422.5L246.5 405H211.5Z" fill="#F17FBD" stroke="#F17FBD"/>
<path d="M217 389L244 328L228 292.5L216 319L92.5 35L340 35.5L333 51.5H371L386 17H35.5L205 389H217Z" fill="#B169B8" stroke="#B169B8"/>
<path d="M216 318.5L228 292L123 51.5H333L340 35.5L92.5 35L216 318.5Z" fill="#F17FBD" stroke="#F17FBD"/>
</g>
<g filter="url(#filter1_d)">
<path d="M158.997 524.516C156.809 526.516 154.512 528.062 152.106 529.156C149.731 530.219 147.028 530.75 143.997 530.75C141.309 530.75 138.716 530.188 136.216 529.062C133.747 527.906 131.544 526.297 129.606 524.234C127.7 522.141 126.153 519.609 124.966 516.641C123.778 513.641 123.184 510.312 123.184 506.656C123.184 502.562 123.872 498.859 125.247 495.547C126.622 492.203 128.45 489.375 130.731 487.062C133.044 484.719 135.669 482.922 138.606 481.672C141.575 480.422 144.591 479.797 147.653 479.797C149.591 479.797 151.512 480.078 153.419 480.641C155.325 481.172 157.184 481.984 158.997 483.078V466.062L151.028 464.516L150.559 460.297L167.528 458V523.953L174.044 525.594L173.106 530H158.997V524.516ZM145.825 524.422C147.887 524.422 150.091 523.906 152.434 522.875C154.809 521.812 156.997 520.406 158.997 518.656V490.156C157.341 488.438 155.591 487.188 153.747 486.406C151.934 485.594 150.122 485.188 148.309 485.188C146.278 485.188 144.325 485.672 142.45 486.641C140.606 487.578 138.966 488.906 137.528 490.625C136.091 492.312 134.934 494.359 134.059 496.766C133.216 499.141 132.794 501.766 132.794 504.641C132.794 507.328 133.028 509.875 133.497 512.281C133.966 514.688 134.731 516.797 135.794 518.609C136.856 520.391 138.216 521.812 139.872 522.875C141.559 523.906 143.544 524.422 145.825 524.422ZM217.15 530V522.219C216.181 523.375 215.009 524.469 213.634 525.5C212.259 526.531 210.806 527.453 209.275 528.266C207.744 529.047 206.197 529.656 204.634 530.094C203.072 530.531 201.587 530.75 200.181 530.75C198.431 530.75 196.791 530.484 195.259 529.953C193.728 529.422 192.384 528.609 191.228 527.516C190.072 526.422 189.134 525.109 188.416 523.578C187.728 522.047 187.384 520.25 187.384 518.188C187.384 515 188.197 512.406 189.822 510.406C191.478 508.375 194.384 506.812 198.541 505.719C201.666 504.875 204.681 504.188 207.587 503.656C210.494 503.094 213.681 502.625 217.15 502.25V494.375C217.15 492.594 216.884 491.078 216.353 489.828C215.853 488.578 215.15 487.562 214.244 486.781C213.369 485.969 212.337 485.391 211.15 485.047C209.962 484.672 208.697 484.484 207.353 484.484C205.884 484.484 204.384 484.594 202.853 484.812C201.322 485 199.822 485.344 198.353 485.844L195.634 496.766L190.666 495.922V483.453C193.166 482.359 195.837 481.391 198.681 480.547C201.525 479.672 204.572 479.234 207.822 479.234C210.322 479.234 212.666 479.484 214.853 479.984C217.041 480.484 218.947 481.328 220.572 482.516C222.197 483.703 223.462 485.281 224.369 487.25C225.306 489.188 225.775 491.594 225.775 494.469V523.953L232.712 525.594L231.728 530H217.15ZM196.994 517.438C196.994 518.969 197.181 520.203 197.556 521.141C197.962 522.047 198.494 522.781 199.15 523.344C199.837 523.875 200.603 524.234 201.447 524.422C202.322 524.609 203.244 524.703 204.212 524.703C205.337 524.703 206.541 524.469 207.822 524C209.103 523.531 210.337 522.953 211.525 522.266C212.712 521.547 213.806 520.734 214.806 519.828C215.806 518.922 216.587 518.062 217.15 517.25V506.281C215.119 506.531 213.072 506.812 211.009 507.125C208.947 507.406 206.9 507.828 204.869 508.391C201.869 509.234 199.806 510.453 198.681 512.047C197.556 513.641 196.994 515.438 196.994 517.438ZM276.944 523.391C275.475 525.672 273.334 527.547 270.522 529.016C267.709 530.453 264.866 531.172 261.991 531.172C259.866 531.172 258.1 530.828 256.694 530.141C255.287 529.484 254.178 528.547 253.366 527.328C252.584 526.109 252.006 524.672 251.631 523.016C251.287 521.328 251.116 519.531 251.116 517.625V485.469H243.522V482.094L251.584 479.188L254.959 468.594H259.787V480.078H275.116V485.375H259.787V515.328C259.787 517.047 259.85 518.5 259.975 519.688C260.1 520.875 260.35 521.828 260.725 522.547C261.1 523.234 261.647 523.719 262.366 524C263.116 524.281 264.1 524.422 265.319 524.422C266.787 524.422 268.287 524.172 269.819 523.672C271.381 523.141 273.147 522.281 275.116 521.094L276.944 523.391ZM318.269 530V522.219C317.3 523.375 316.128 524.469 314.753 525.5C313.378 526.531 311.925 527.453 310.394 528.266C308.863 529.047 307.316 529.656 305.753 530.094C304.191 530.531 302.706 530.75 301.3 530.75C299.55 530.75 297.909 530.484 296.378 529.953C294.847 529.422 293.503 528.609 292.347 527.516C291.191 526.422 290.253 525.109 289.534 523.578C288.847 522.047 288.503 520.25 288.503 518.188C288.503 515 289.316 512.406 290.941 510.406C292.597 508.375 295.503 506.812 299.659 505.719C302.784 504.875 305.8 504.188 308.706 503.656C311.613 503.094 314.8 502.625 318.269 502.25V494.375C318.269 492.594 318.003 491.078 317.472 489.828C316.972 488.578 316.269 487.562 315.363 486.781C314.488 485.969 313.456 485.391 312.269 485.047C311.081 484.672 309.816 484.484 308.472 484.484C307.003 484.484 305.503 484.594 303.972 484.812C302.441 485 300.941 485.344 299.472 485.844L296.753 496.766L291.784 495.922V483.453C294.284 482.359 296.956 481.391 299.8 480.547C302.644 479.672 305.691 479.234 308.941 479.234C311.441 479.234 313.784 479.484 315.972 479.984C318.159 480.484 320.066 481.328 321.691 482.516C323.316 483.703 324.581 485.281 325.488 487.25C326.425 489.188 326.894 491.594 326.894 494.469V523.953L333.831 525.594L332.847 530H318.269ZM298.113 517.438C298.113 518.969 298.3 520.203 298.675 521.141C299.081 522.047 299.613 522.781 300.269 523.344C300.956 523.875 301.722 524.234 302.566 524.422C303.441 524.609 304.363 524.703 305.331 524.703C306.456 524.703 307.659 524.469 308.941 524C310.222 523.531 311.456 522.953 312.644 522.266C313.831 521.547 314.925 520.734 315.925 519.828C316.925 518.922 317.706 518.062 318.269 517.25V506.281C316.238 506.531 314.191 506.812 312.128 507.125C310.066 507.406 308.019 507.828 305.988 508.391C302.988 509.234 300.925 510.453 299.8 512.047C298.675 513.641 298.113 515.438 298.113 517.438Z" fill="black"/>
</g>
<defs>
<filter id="filter0_d" x="0.223633" y="0.5" width="427.052" height="413" filterUnits="userSpaceOnUse" color-interpolation-filters="sRGB">
<feFlood flood-opacity="0" result="BackgroundImageFix"/>
<feColorMatrix in="SourceAlpha" type="matrix" values="0 0 0 0 0 0 0 0 0 0 0 0 0 0 0 0 0 0 127 0"/>
<feOffset dy="4"/>
<feGaussianBlur stdDeviation="2"/>
<feColorMatrix type="matrix" values="0 0 0 0 0 0 0 0 0 0 0 0 0 0 0 0 0 0 0.25 0"/>
<feBlend mode="normal" in2="BackgroundImageFix" result="effect1_dropShadow"/>
<feBlend mode="normal" in="SourceGraphic" in2="effect1_dropShadow" result="shape"/>
</filter>
<filter id="filter1_d" x="119.185" y="458" width="218.647" height="81.1719" filterUnits="userSpaceOnUse" color-interpolation-filters="sRGB">
<feFlood flood-opacity="0" result="BackgroundImageFix"/>
<feColorMatrix in="SourceAlpha" type="matrix" values="0 0 0 0 0 0 0 0 0 0 0 0 0 0 0 0 0 0 127 0"/>
<feOffset dy="4"/>
<feGaussianBlur stdDeviation="2"/>
<feColorMatrix type="matrix" values="0 0 0 0 0 0 0 0 0 0 0 0 0 0 0 0 0 0 0.25 0"/>
<feBlend mode="normal" in2="BackgroundImageFix" result="effect1_dropShadow"/>
<feBlend mode="normal" in="SourceGraphic" in2="effect1_dropShadow" result="shape"/>
</filter>
</defs>
</svg>
